<?xml version="1.0" encoding="utf-8" ?><!-- created by svgstack.com | Attribution is required. --><svg xmlns="http://www.w3.org/2000/svg" xmlns:xlink="http://www.w3.org/1999/xlink" width="1024" height="1024"><path transform="scale(2 2)" d="M80.2504 121.557L422.319 121.558C435.573 121.556 450.833 122.112 452.373 140.164C452.767 144.785 452.502 149.643 452.502 154.287L452.51 352.958C452.542 367.66 450.857 383.253 431.563 384.74L92.4037 384.756C88.0271 384.76 83.5035 384.992 79.1502 384.568C57.9084 382.501 59.3732 362.467 59.3991 347.3L59.3867 150.737C59.2835 134.866 61.3871 122.485 80.2504 121.557ZM246.123 146.458L108.624 146.458C115.69 152.644 123.206 158.395 130.499 164.32L228.971 244.282C238.131 251.714 247.016 259.426 256.382 266.618C258.319 265.177 260.266 263.593 262.017 261.928C273.053 253.25 283.744 244.042 294.561 235.084L384.63 161.317C390.701 156.403 396.871 151.591 402.761 146.458L246.123 146.458ZM299.593 262.946C291.128 269.587 282.92 276.846 274.737 283.845C258.973 297.329 257.584 300.745 239.048 285.576L218.257 268.311C216.835 267.135 213.096 263.57 211.569 262.946C189.955 281.593 169.153 301.202 147.944 320.309L121.408 344.188C115.696 349.3 109.732 354.294 104.352 359.75C112.81 359.908 121.294 359.749 129.755 359.749L333.625 359.75L408.341 359.75C401.336 353.19 393.992 347.032 386.807 340.677L358.58 315.382C338.995 297.857 319.703 279.871 299.593 262.946ZM427.249 160.219C422.451 163.06 418.08 166.923 413.733 170.412L340.453 230.183C333.686 235.703 326.43 240.822 319.921 246.634C330.378 256.343 341.18 265.83 351.938 275.204C356.969 279.589 366.848 287.269 370.441 292.173C374.962 294.901 378.911 299.18 382.884 302.673L409.086 326.014C415.113 331.447 421.857 336.25 427.249 342.339L427.248 188.547C427.243 181.103 427.13 173.644 427.254 166.202C427.272 165.18 427.991 160.775 427.249 160.219ZM84.7498 160.219C84.4394 180.435 84.7493 200.703 84.7497 220.926L84.7498 342.339C103.441 328.062 122.563 307.956 140.667 292.173C145.208 287.846 149.945 283.761 154.586 279.546L183.324 253.16C185.765 250.88 188.078 248.477 190.881 246.634C184.778 238.812 162.665 222.971 154.313 216.166L108.459 179.232C100.646 172.939 93.0165 165.877 84.7498 160.219Z"/></svg> 